<?xml version="1.0" encoding="utf-8"?>
<!-- Generator: Adobe Illustrator 19.0.0, SVG Export Plug-In . SVG Version: 6.00 Build 0)  -->
<svg version="1.1" id="Camada_1" xmlns="http://www.w3.org/2000/svg" xmlns:xlink="http://www.w3.org/1999/xlink" x="0px" y="0px"
	 viewBox="0 0 1280 1024" style="enable-background:new 0 0 1280 1024;" xml:space="preserve">
<style type="text/css">
	.st0{fill:#23518C;}
	.st1{fill:#006BFE;}
	.st2{fill:#548C57;}
	.st3{fill:#FFFFFF;stroke:#FFFFFF;stroke-width:19;stroke-miterlimit:10;}
	.st4{fill:#FFFFFF;stroke:#000000;stroke-miterlimit:10;}
</style>
<path class="st0" d="M919,523c0,183.4-148.6,332-332,332c-111.3,0-209.8-54.7-270-138.8c-3.7-5.2-7.3-10.5-10.7-15.8
	c-7.7-13.7-12.7-24.8-12.7-24.8s-7.1-14.7-13.6-29.4c-4.2-9.4-8.2-18.8-10-24.3c-13.9-42.1-15-96.3-15-98.9c0.3-17.1,1.3-26,1.3-26
	s1.6-14.8,1.3-14.9c0,0,0,0,0,0c0,0,0,0-0.1,0.1c11.4-92.9,61.1-174,132.9-226.8c55-40.5,123-64.4,196.6-64.4
	c16.7,0,33.1,1.2,49.2,3.6c91.7,13.6,171.1,64.7,222.3,137.2c34.2,48.5,55.8,106.5,59.9,169.3C918.8,508.3,919,515.6,919,523z"/>
<path class="st1" d="M263.6,491.2"/>
<path class="st2" d="M676.8,527.8c-5.4,10.6-13.9,15.5-17,17.1c-2,14.8-6.8,25.8-10.3,32.5c-3.7,7.1-8,15.3-16.9,22.6
	c-11.3,9.3-23.7,12-30.7,12.8c-11.1,16.2-22.2,32.4-33.3,48.6c-12.6,6.1-21.8,12.8-28,17.8c-6.5,5.3-11.3,9.2-15.9,16
	c-2.5,3.7-8,12-9.2,23.7c-0.6,5.3,0.2,10.4,1.8,20.3c2.9,18.3,5.7,23,3.4,24.7c-4.2,3.3-19.7-8.8-29.3-19.6
	c-7.5-8.5-14.7-16.6-16.1-28.5c-1-8.1,1.3-12.5-1.2-23.1c-1.3-5.5-3.1-9.1-4.5-12c-0.4-0.8-0.8-1.6-1.1-2.3
	c-2.8-6.5-4-16.3,1.3-31.5c0.9-2.7,2-5.5,3.4-8.5c0.5-1.2,1.1-2.3,1.7-3.6c-0.1-0.4-0.3-0.8-0.4-1.2c-1.7-4.8-3.2-10.5-4.1-16.9
	c-2.4-18.9,2.3-34.3,5.8-42.9c-2.3-2.6-8.6-10.5-8.9-22c-0.2-5.3,1-9.7,2.1-12.7c-11-5.2-18.6-11.4-23.2-15.8
	c-6.4-6.1-15.2-14.5-18.3-27.4c-0.5-2.1-0.9-5.6-1.7-12.6c-1.3-11-1.9-16.4-1.8-20.9c0.5-18.5,11.9-33.7,15.2-38
	c4.8-6.3,7.6-8,10.9-14.9c3-6.3,6.8-14.2,3.7-20.4c-3.2-6.4-10.9-5.3-17.7-14.8c-1.7-2.4-2.7-4.6-3.3-6c-2-6.4-4.1-12.8-6.2-19.2
	c-3.9-2.9-7.7-5.8-11.6-8.7c0-6-0.1-12.1-0.1-18.1c-4.5-1.1-15.4-4.6-22.6-14.7c-4.3-6-5.5-12-6.7-17.6c-2.2-10.5-1.6-20.1-0.2-27.5
	c1.4-2.3,2.9-4.7,4.4-7.1c55-40.5,123-64.4,196.6-64.4c16.7,0,33.1,1.2,49.2,3.6c-0.5,1.3-1.2,2.7-2.4,3.9c-6,5.8-15.1-1.5-31.9,1.8
	c-7.7,1.5-14,4.6-14.8,5c-9.3,4.6-11.6,9-18.6,9.4c-5.4,0.4-6.3-2-11-1c-6.4,1.3-9.7,6.6-12.6,10c-4.5,5.2-12.7,11.3-29.1,13.9
	c0.5,13.3-1.1,22.9-2.6,29.2c-0.8,3.5-2,7.2-4.4,7.7c-3.2,0.7-6.9-4.5-8.3-6.5c-7.2-10.3-4.3-16.7-8.4-22.5c-7.2-10.1-28-7.5-38-4.7
	c-3,0.8-23.7,6.9-32.9,26.6c-4.2,9.1-7,23.4-1.5,27.5c4.7,3.5,12-3,23.1,1.5c2.2,0.9,5.7,2.4,6.6,5.5c1.4,4.7-3.8,10.3-4.9,11.6
	c-3.9,4.3-7,4.5-7.7,7.7c-0.4,1.8,0.3,3.4,1.7,6.6c1.9,4.5,3.4,5.1,4.4,7.7c1.7,4.3-0.7,7.3-1.6,12.7c-1.6,10.1,3.9,18.8,4.5,19.8
	c6.9,10.6,18.9,12.3,20.4,12.5c3.6,0.5,8.9,1.2,13.7-1.7c7.4-4.4,5.5-12.4,11.5-14.9c4.3-1.8,9.3,0.8,19.3,5.9
	c7.1,3.7,9.5,5.8,16,9.8c4.8,3,6,3.4,25.4,13.1c14.5,7.2,21.7,10.9,24.3,12.5c10.6,6.9,17,11,22.1,19.1c6.5,10.5,3.1,15.3,11.1,24.7
	c3.6,4.3,6.5,5.8,10.5,12c4.3,6.6,3.4,8.5,6.1,12.1c5.9,7.7,15.7,6,26.4,9.2c7.6,2.3,17.6,7.5,27.6,20.8
	C681,506.3,682.4,516.7,676.8,527.8z"/>
<path class="st2" d="M504.9,296.9c-6.4-2.6-6.5-6.3-12.7-7.2c-0.9-0.1-7.3-0.9-11.6,3.3c-0.2,0.2-3.9,4-2.8,6.6
	c1,2.2,4.6,2.1,10.5,2.8c9.4,1,7.8,2.2,23.1,4.4c10.3,1.5,13,1.2,14.3-0.6c1.3-1.7,1.4-4.7,0-6.6
	C522.7,295.3,514.8,300.9,504.9,296.9z"/>
<path class="st2" d="M515.9,325c-0.5-2.7,9.6-6.4,16-7.7c3.9-0.8,6.1-0.6,7.7,0.6c2,1.4,1.7,3,3.9,4.4c2.9,1.8,5.4,0.1,6.6,1.7
	c1.2,1.6,0.2,5.5-2.2,7.2c-2.8,1.9-6.2-0.3-12.7-2.2C522.9,325.2,516.4,327.1,515.9,325z"/>
<path class="st2" d="M915.1,482.9c-5.5-2-14.5-2.1-29.7,2.9c-9.2-1.8-23.1-5.4-38.6-13c-21.1-10.3-37.4-18.3-42.4-33.8
	c-4.5-14,5.5-17.6,6.3-52.6c0.2-7.6-0.2-13.4,1.1-23.7c1.8-15.6,2.8-23.4,8.5-30.1c7.2-8.6,13.1-4.6,24.6-14.4
	c0.3-0.3,0.7-0.6,1-0.9C882.8,363.7,907.5,420.4,915.1,482.9z"/>
<path class="st3" d="M629.6,558.5l-32.7,96.1l-12.4-27.9c-11.5,11.9-23.8,23.1-36.8,33.4c-8.9,7.1-18.2,13.9-27.7,20.2
	c-44.5,29.5-91.4,47.4-139.9,53.3c-11.5,1.4-23.1,2.1-34.8,2.2l-0.2,0c-1.6,0-3.2,0-4.9,0c-6.1-6.6-12-13.4-17.6-20.3
	c-13.1-17.9-22.1-32.6-22.1-32.6s-12.4-19.4-24-38.8c43.3,14.4,99.7,27.2,156.8,16.1c42.1-8.2,85.5-29.7,109-47.3
	c4.9-3.7,9-7.2,12-10.4l-8.7-2l-12.5-2.7L629.6,558.5z"/>
<path class="st4" d="M826.9,513.6l-14.5,4.5l-6.5-24.9l26.4-16.5l-7.6-21.2l-25.2,10.7l-9.4-41.3l28.9-38.3c0,0,17.7-23.2,6.7-34.6
	c-0.2-0.2-0.5-0.5-0.7-0.7l0,0c-0.3-0.3-0.5-0.5-0.8-0.7c-12.1-10.4-34.1,8.7-34.1,8.7l-36.5,31.2l-41.8-7l9.2-25.8l-21.7-6.3
	l-14.9,27.4l-25.3-5l3.6-14.8l-15.6-3.1l-7.4,15.6l-19.8-0.4l-8,12.8l125.5,33.7l-59.8,73.7l-27.6-0.1l-6.3,18.3l30.7,1.4L674,511
	l0.3,0.1l0.1,0.2l0.1-0.1l3.2,30.6l17.9-7.4l-1.8-27.6l70-64.1L805,565.8l12.3-8.8l-1.6-19.8l15.1-8.3L826.9,513.6z"/>
<path class="st2" d="M747.5,808.3c-0.2-5.9-3.4-14.3-13.7-26.5c-1.7-9.2-3.5-23.4-2.3-40.7c1.7-23.4,3.1-41.5,15.6-51.9
	c11.3-9.3,18.4-1.4,51.2-13.7c7.2-2.7,12.4-5.1,22.4-7.8c15.2-4.1,22.8-6.1,31.1-3.3c10.6,3.5,9.1,10.5,22.5,17.5
	c0.4,0.2,0.8,0.4,1.2,0.6C846.1,734.1,802.6,778.1,747.5,808.3z"/>
</svg>
